<svg xmlns="http://www.w3.org/2000/svg" xmlns:xlink="http://www.w3.org/1999/xlink" width="205.095" height="207.89" viewBox="0 0 205.095 207.89"><image overflow="visible" width="479" height="353" xlink:href="A53A3372F0E75F46.png" transform="matrix(.24 0 0 .24 44.012 151.277)" opacity=".3"/><image overflow="visible" width="629" height="273" xlink:href="A53A3372F0E75F41.png" transform="matrix(.24 0 0 .24 25.826 11.02)"/><image overflow="visible" width="629" height="342" xlink:href="A53A3372F0E75F40.png" transform="matrix(.24 0 0 .24 25.826 46.393)"/><path opacity=".3" fill="#7A2A10" d="M62.702 128.44s-10.949-11.912-7.984-31.983c2.965-20.07 19.228-39.324 46.474-40.141 27.247-.817 45.938 23.925 47.036 41.265.983 15.525-5.801 27.596-8.527 30.859h-76.999z"/><image overflow="visible" width="360" height="557" xlink:href="A53A3372F0E75F4E.png" transform="matrix(.24 0 0 .24 58.313 60.247)"/><path fill="#fff" d="M101.237 62.539c-7.302 0-27.484-.167-39.099 30.022 3.22-8.369 12.933-27.549 39.099-27.549 28.31 0 38.317 22.959 40.728 29.481-11.318-30.618-30.385-31.954-40.728-31.954z" opacity=".1"/><image overflow="visible" width="164" height="164" xlink:href="A53A3372F0E75F44.png" transform="matrix(.24 0 0 .24 81.668 88.968)"/><image overflow="visible" width="462" height="371" xlink:href="A53A3372F0E75F59.png" transform="matrix(.24 0 0 .24 45.85 52.978)" opacity=".2"/><path opacity=".1" fill="#fff" d="M101.403 128.065c-16.66-.394-19.398-15.68-19.398-15.68 1.98 14.649 13.799 17.879 19.398 17.879 5.45 0 17.543-3.587 18.981-17.879.001.001-2.097 14.65-18.981 15.68z"/></svg>