<?xml version="1.0" encoding="utf-8"?>
<!-- Generator: Adobe Illustrator 16.0.0, SVG Export Plug-In . SVG Version: 6.00 Build 0)  -->
<!DOCTYPE svg PUBLIC "-//W3C//DTD SVG 1.1//EN" "http://www.w3.org/Graphics/SVG/1.1/DTD/svg11.dtd">
<svg version="1.1" id="Calque_1" xmlns="http://www.w3.org/2000/svg" xmlns:xlink="http://www.w3.org/1999/xlink" x="0px" y="0px"
	 width="205.095px" height="207.89px" viewBox="0 0 205.095 207.89" enable-background="new 0 0 205.095 207.89"
	 xml:space="preserve">
<path display="none" opacity="0.6" fill="#141414" d="M188.104-110c0,0-26.604-40-20.271-94c8.5-56.167,54-113.062,130.323-113.062
	c79.031-0.028,124.178,60.562,130.633,116.938c3.909,41.459-14.456,77.958-21.544,90.064L188.104-110z"/>
<g>
	<g opacity="0.3">
		
			<image overflow="visible" width="479" height="353" xlink:href="A53A3372F0E75F46.png"  transform="matrix(0.24 0 0 0.24 44.0122 151.2773)">
		</image>
	</g>
	<g>
		
			<image overflow="visible" width="629" height="273" xlink:href="A53A3372F0E75F41.png"  transform="matrix(0.24 0 0 0.24 25.8262 11.0195)">
		</image>
		
			<image overflow="visible" width="629" height="342" xlink:href="A53A3372F0E75F40.png"  transform="matrix(0.24 0 0 0.24 25.8262 46.3926)">
		</image>
		<path opacity="0.3" fill="#7A2A10" d="M62.702,128.44c0,0-10.949-11.912-7.984-31.983c2.965-20.07,19.228-39.324,46.474-40.141
			c27.247-0.817,45.938,23.925,47.036,41.265c0.983,15.525-5.801,27.596-8.527,30.859H62.702z"/>
		
			<image overflow="visible" width="360" height="557" xlink:href="A53A3372F0E75F4E.png"  transform="matrix(0.24 0 0 0.24 58.3135 60.2471)">
		</image>
		<g opacity="0.1">
			<g>
				<path fill="#FFFFFF" d="M101.237,62.539c-7.302,0-27.484-0.167-39.099,30.022c3.22-8.369,12.933-27.549,39.099-27.549
					c28.31,0,38.317,22.959,40.728,29.481C130.647,63.875,111.58,62.539,101.237,62.539z"/>
			</g>
		</g>
		
			<image overflow="visible" width="164" height="164" xlink:href="A53A3372F0E75F44.png"  transform="matrix(0.24 0 0 0.24 81.668 88.9678)">
		</image>
		<g opacity="0.2">
			
				<image overflow="visible" width="462" height="371" xlink:href="A53A3372F0E75F59.png"  transform="matrix(0.24 0 0 0.24 45.8496 52.9785)">
			</image>
		</g>
		<path opacity="0.1" fill="#FFFFFF" d="M101.403,128.065c-16.66-0.394-19.398-15.68-19.398-15.68
			c1.98,14.649,13.799,17.879,19.398,17.879c5.45,0,17.543-3.587,18.981-17.879C120.385,112.386,118.287,127.035,101.403,128.065z"
			/>
	</g>
</g>
</svg>
