<svg xmlns="http://www.w3.org/2000/svg" width="104" height="104" viewBox="0 0 64 64" enable-background="new 0 0 64 64"><path fill="#70afec" d="M32.001 3.56c-15.684 0-28.441 12.757-28.441 28.44 0 15.683 12.757 28.44 28.442 28.44 15.681 0 28.438-12.757 28.438-28.44 0-15.683-12.757-28.44-28.439-28.44zm-7.774 23.033l.057-.063c.232-.168.345-.432.303-.708-.573-3.446-.197-4.883-.07-5.244 1.001-3.072 4.143-4.493 4.76-4.745.131-.052.374-.125.62-.163l.073-.017.505-.027.004.031.117-.011.329-.051.111-.024c.099.001 1.322.156 3.139.713l1.263.435c2.31.682 3.372 1.951 3.569 2.207 1.85 2.095 1.354 5.259.896 6.958-.052.2-.021.406.092.577l.105.129c.134.182.254.884-.148 2.376-.076.453-.243.821-.492 1.069-.092.101-.156.229-.179.374-.625 3.665-3.909 7.764-7.37 7.764-2.937 0-6.289-3.771-6.892-7.761-.023-.149-.085-.28-.188-.393-.251-.26-.411-.635-.508-1.19-.294-1.044-.323-1.885-.096-2.236zm-6.593 15.892c.127-.161.837-.993 2.273-1.541 1.263-.388 4.384-1.425 6.09-2.661.08-.044.159-.127.224-.194.158-.17.399-.429.685-.694l.159-.151.162.152c1.503 1.417 3.166 2.194 4.683 2.194 1.594 0 3.237-.69 4.756-1.996l.119-.103.322.157c.288.264.786.626 1.018.736l.296.145-.031.032.132.08c.28.169.585.333.943.51.361.159.663.277.976.379.264.086 1.668.558 3.265 1.296l.305.092c1.562.598 2.256 1.429 2.325 1.516 1.854 2.748 2.565 7.876 2.829 10.733-4.843 3.933-10.935 6.098-17.162 6.098-6.23 0-12.323-2.165-17.164-6.099.259-2.85.964-7.962 2.795-10.681z"/></svg>