<svg xmlns="http://www.w3.org/2000/svg" width="104" height="104" viewBox="0 0 64 64" enable-background="new 0 0 64 64"><path fill="#70afec" d="M32.001 2.893c-16.051 0-29.108 13.057-29.108 29.107 0 16.051 13.057 29.107 29.108 29.107 16.049 0 29.106-13.057 29.106-29.107 0-16.05-13.056-29.107-29.106-29.107zm.144 8.244c6.964 0 12.628 6.352 12.628 14.158 0 .513-.023 1.029-.072 1.531-.449 4.69-2.949 8.805-6.688 11.006-.106.064-.23.099-.354.099-.175 0-.344-.066-.473-.187-.227-.207-.291-.535-.155-.814 2.156-4.475.019-9.605-.006-9.654l-1.95-4.857c-2.481 3.007-6.466 3.656-7.737 3.79-3.017 4.4-1.499 8.304.307 10.807.136.111.224.305.224.509 0 .403-.287.697-.682.697l-.031-.002c-.117 0-.229-.026-.327-.078-4.444-2.311-7.316-7.353-7.316-12.846.001-7.807 5.666-14.159 12.632-14.159zm-.144 48.767c-6.664 0-13.119-2.403-18.185-6.767.592-3.194 1.421-5.597 2.452-7.132.143-.179.933-1.101 2.52-1.706 1.391-.428 4.835-1.571 6.722-2.937.086-.051.173-.143.242-.215.097-.104.105-.191.113-.256.005-.066.012-.128.166-.272l.186-.172.181.174c1.711 1.61 4.038 2.183 5.644 2.183 2.154 0 4.293-.735 5.72-1.966l.138-.117.362.177.243.248c.127.136.228.244.39.322l.455.291c.322.191.66.375 1.037.56.395.173.728.302 1.076.419.176.059 1.767.578 3.606 1.43l.336.105c1.804.688 2.567 1.67 2.567 1.67 1.029 1.528 1.854 3.876 2.451 6.989-5.101 4.496-11.641 6.972-18.422 6.972z"/></svg>