<?xml version="1.0" encoding="utf-8"?>
<!-- Generator: Adobe Illustrator 15.0.0, SVG Export Plug-In . SVG Version: 6.00 Build 0)  -->
<!DOCTYPE svg PUBLIC "-//W3C//DTD SVG 1.1//EN" "http://www.w3.org/Graphics/SVG/1.1/DTD/svg11.dtd">
<svg version="1.1" id="Layer_1" xmlns="http://www.w3.org/2000/svg" xmlns:xlink="http://www.w3.org/1999/xlink" x="0px" y="0px"
	 width="104px" height="104px" viewBox="0 0 64 64" enable-background="new 0 0 64 64" xml:space="preserve">
<g>
	<g>
		<path fill="#70afec" d="M32.001,2.893C15.95,2.893,2.893,15.95,2.893,32c0,16.051,13.057,29.107,29.108,29.107
			c16.049,0,29.106-13.057,29.106-29.107C61.107,15.95,48.051,2.893,32.001,2.893z M32.145,11.137
			c6.964,0,12.628,6.352,12.628,14.158c0,0.513-0.023,1.029-0.072,1.531c-0.449,4.69-2.949,8.805-6.688,11.006
			c-0.106,0.064-0.23,0.099-0.354,0.099c-0.175,0-0.344-0.066-0.473-0.187c-0.227-0.207-0.291-0.535-0.155-0.814
			c2.156-4.475,0.019-9.605-0.006-9.654l-1.95-4.857c-2.481,3.007-6.466,3.656-7.737,3.79c-3.017,4.4-1.499,8.304,0.307,10.807
			c0.136,0.111,0.224,0.305,0.224,0.509c0,0.403-0.287,0.697-0.682,0.697l-0.031-0.002c-0.117,0-0.229-0.026-0.327-0.078
			c-4.444-2.311-7.316-7.353-7.316-12.846C19.514,17.489,25.179,11.137,32.145,11.137z M32.001,59.904
			c-6.664,0-13.119-2.403-18.185-6.767c0.592-3.194,1.421-5.597,2.452-7.132c0.143-0.179,0.933-1.101,2.52-1.706
			c1.391-0.428,4.835-1.571,6.722-2.937c0.086-0.051,0.173-0.143,0.242-0.215c0.097-0.104,0.105-0.191,0.113-0.256
			c0.005-0.066,0.012-0.128,0.166-0.272l0.186-0.172l0.181,0.174c1.711,1.61,4.038,2.183,5.644,2.183
			c2.154,0,4.293-0.735,5.72-1.966l0.138-0.117l0.362,0.177c0.104,0.096,0.178,0.177,0.243,0.248
			c0.127,0.136,0.228,0.244,0.39,0.322l0.455,0.291c0.322,0.191,0.66,0.375,1.037,0.56c0.395,0.173,0.728,0.302,1.076,0.419
			c0.176,0.059,1.767,0.578,3.606,1.43l0.336,0.105c1.804,0.688,2.567,1.67,2.567,1.67c1.029,1.528,1.854,3.876,2.451,6.989
			C45.322,57.428,38.782,59.904,32.001,59.904z"/>
	</g>
</g>
</svg>
