<?xml version="1.0" encoding="utf-8"?>
<!-- Generator: Adobe Illustrator 16.0.0, SVG Export Plug-In . SVG Version: 6.00 Build 0)  -->
<!DOCTYPE svg PUBLIC "-//W3C//DTD SVG 1.1//EN" "http://www.w3.org/Graphics/SVG/1.1/DTD/svg11.dtd">
<svg version="1.1" id="Calque_1" xmlns="http://www.w3.org/2000/svg" xmlns:xlink="http://www.w3.org/1999/xlink" x="0px" y="0px"
	 width="90px" height="60px" viewBox="0 -0.569 90 60" enable-background="new 0 -0.569 90 60" xml:space="preserve">
<g>
	<g>
		<g>
			<g>
				<g>
					<polygon fill="#F0832C" points="25.938,32.736 32.531,23.868 41.31,12.056 49.237,1.392 38.675,1.389 7.828,42.967 
						18.364,42.93 					"/>
					<polygon fill="#F0832C" points="41.419,23.844 41.422,13.333 49.22,2.844 49.237,42.967 41.474,42.988 41.477,32.594 
						29.786,32.598 29.818,32.334 36.365,30.114 36.37,29.906 29.046,29.917 33.595,23.866 					"/>
				</g>
				<polygon fill="#F0832C" points="54.494,40.377 54.494,6.725 61.758,6.746 61.547,40.393 				"/>
				<polygon fill="#8C451E" points="49.22,2.844 54.494,6.725 54.494,40.377 49.237,42.967 				"/>
				<polygon fill="#F0832C" points="70.864,23.292 65.02,31.407 71.823,40.393 82.172,40.393 				"/>
			</g>
		</g>
		<g>
			<g>
				<polygon fill="#F0832C" points="69.851,6.704 62.586,16.695 62.586,32.66 64.232,30.37 64.235,30.371 73.099,18.064 
					73.104,18.068 81.288,6.704 				"/>
			</g>
		</g>
	</g>
	<text transform="matrix(1 0 0 1 17.5898 57.4727)" fill="#F0832C" font-family="'Gotham-Thin'" font-size="17.185">A</text>
	<text transform="matrix(1 0 0 1 30.771 57.4727)" fill="#F0832C" font-family="'Gotham-Book'" font-size="17.185">kot</text>
	<text transform="matrix(1 0 0 1 58.5928 57.4727)" fill="#F0832C" font-family="'Gotham-Thin'" font-size="17.185">er</text>
</g>
</svg>
