<?xml version="1.0" encoding="utf-8"?>
<!-- Generator: Adobe Illustrator 16.0.0, SVG Export Plug-In . SVG Version: 6.00 Build 0)  -->
<!DOCTYPE svg PUBLIC "-//W3C//DTD SVG 1.1//EN" "http://www.w3.org/Graphics/SVG/1.1/DTD/svg11.dtd">
<svg version="1.1" id="Calque_1" xmlns="http://www.w3.org/2000/svg" xmlns:xlink="http://www.w3.org/1999/xlink" x="0px" y="0px"
	 width="80px" height="60px" viewBox="0 0 80 60" enable-background="new 0 0 80 60" xml:space="preserve">
<g>
	<g>
		<g>
			<g>
				<g>
					<polygon fill="#F0832C" points="-95.604,-7.412 -89.777,-15.25 -82.017,-25.69 -75.011,-35.116 -84.346,-35.119 -111.611,1.63 
						-102.299,1.596 					"/>
					<polygon fill="#F0832C" points="-81.921,-15.272 -81.918,-24.561 -75.026,-33.833 -75.011,1.63 -81.873,1.649 -81.87,-7.538 
						-92.203,-7.535 -92.175,-7.766 -86.388,-9.731 -86.384,-9.914 -92.857,-9.905 -88.836,-15.252 					"/>
				</g>
				<polygon fill="#F0832C" points="-70.364,-0.66 -70.364,-30.403 -63.945,-30.384 -64.131,-0.643 				"/>
				<polygon fill="#8C451E" points="-75.026,-33.833 -70.364,-30.403 -70.364,-0.66 -75.011,1.63 				"/>
				<polygon fill="#F0832C" points="-55.896,-15.759 -61.062,-8.586 -55.048,-0.643 -45.902,-0.643 				"/>
			</g>
		</g>
		<g>
			<g>
				<polygon fill="#F0832C" points="-56.791,-30.421 -63.212,-21.591 -63.212,-7.48 -61.757,-9.503 -61.754,-9.502 -53.92,-20.381 
					-53.915,-20.377 -46.682,-30.421 				"/>
			</g>
		</g>
	</g>
	<text transform="matrix(1 0 0 1 -102.9834 14.4512)"><tspan x="0" y="0" fill="#F0832C" font-family="'Gotham-Thin'" font-size="15.1893">A</tspan><tspan x="11.65" y="0" fill="#F0832C" font-family="'Gotham-Book'" font-size="15.1893">kot</tspan><tspan x="36.241" y="0" fill="#F0832C" font-family="'Gotham-Thin'" font-size="15.1893">er</tspan></text>
</g>
<g>
	<g>
		<g>
			<g>
				<g>
					<polygon fill="#F0832C" points="14.105,35.213 18.653,29.094 24.712,20.944 30.18,13.587 22.894,13.585 1.61,42.271 
						8.879,42.244 					"/>
					<polygon fill="#F0832C" points="24.786,29.077 24.789,21.826 30.169,14.589 30.18,42.271 24.824,42.285 24.826,35.115 
						16.761,35.116 16.782,34.937 21.299,33.402 21.302,33.26 16.249,33.268 19.389,29.092 					"/>
				</g>
				<polygon fill="#F0832C" points="33.807,40.483 33.807,17.266 38.818,17.281 38.674,40.496 				"/>
				<polygon fill="#723B17" points="30.169,14.589 33.807,17.266 33.807,40.483 30.18,42.271 				"/>
				<polygon fill="#F0832C" points="45.102,28.697 41.069,34.296 45.764,40.496 52.902,40.496 				"/>
			</g>
		</g>
		<g>
			<g>
				<polygon fill="#F0832C" points="44.402,17.251 39.39,24.145 39.39,35.159 40.527,33.58 40.529,33.582 46.644,25.089 
					46.648,25.092 52.295,17.251 				"/>
			</g>
		</g>
	</g>
	<text transform="matrix(1 0 0 1 52.6553 40.498)" fill="#F0832C" font-family="'Gotham-Bold'" font-size="11.8568">oter</text>
</g>
</svg>
